<svg xmlns="http://www.w3.org/2000/svg" class="w-full h-full" xmlns:xlink="http://www.w3.org/1999/xlink" viewBox="0 0 192 192" version="1.1">
<g>
<path style=" stroke:none;fill-rule:nonzero;fill-opacity:1;" fill="currentColor" d="M 104.402344 184.324219 C 125.253906 182.148438 143.925781 173.375 158.628906 158.675781 C 172.730469 144.574219 181.054688 127.476562 184.054688 106.925781 C 184.65625 102.800781 184.65625 89.226562 184.054688 85.101562 C 181.128906 64.550781 172.730469 47.375 158.628906 33.351562 C 144.527344 19.328125 127.355469 10.851562 106.878906 7.925781 C 102.828125 7.324219 89.179688 7.324219 85.054688 7.925781 C 74.554688 9.425781 65.628906 12.125 56.855469 16.550781 C 47.253906 21.351562 40.355469 26.300781 33.003906 33.726562 C 18.980469 47.828125 10.804688 64.703125 7.878906 85.101562 C 7.277344 89.152344 7.277344 102.800781 7.878906 106.925781 C 10.804688 127.402344 19.203125 144.652344 33.304688 158.675781 C 47.03125 172.402344 63.753906 180.800781 83.480469 183.800781 C 87.832031 184.476562 99.980469 184.851562 104.40625 184.324219 Z M 102.226562 139.097656 C 100.578125 138.347656 97.800781 135.722656 82.425781 120.347656 C 62.25 100.097656 62.851562 100.921875 62.851562 96.046875 C 62.851562 91.097656 62.175781 91.996094 82.351562 71.746094 C 102.601562 51.496094 102 51.945312 106.953125 51.945312 C 111.453125 51.945312 115.054688 54.269531 116.929688 58.320312 C 117.605469 59.820312 117.828125 60.71875 117.828125 62.820312 C 117.828125 67.695312 118.203125 67.246094 102.976562 82.46875 L 89.476562 96.042969 L 102.828125 109.46875 C 117.902344 124.617188 117.828125 124.46875 117.828125 129.117188 C 117.828125 132.417969 117.003906 134.59375 114.828125 136.84375 C 111.453125 140.367188 106.726562 141.195312 102.226562 139.09375 Z M 102.226562 139.097656 "/>
</g>
</svg>