<svg viewBox="0 0 36 36" fill="currentColor" aria-hidden="true"><path d="M20.928 10.121a1 1 0 0 1 .49-1.683l6.361-1.413a1 1 0 0 1 1.194 1.193l-1.414 6.36a1 1 0 0 1-1.683.49l-1.414-1.413a.25.25 0 0 0-.353 0l-3.048 3.048a1 1 0 0 1-1.415 0l-.353-.353a1 1 0 0 1 0-1.415l3.048-3.048a.25.25 0 0 0 0-.353l-1.413-1.413zM15.069 25.875a1 1 0 0 1-.49 1.683l-6.361 1.414a1 1 0 0 1-1.193-1.194l1.413-6.36a1 1 0 0 1 1.683-.49l1.414 1.413a.25.25 0 0 0 .353 0l3.048-3.048a1 1 0 0 1 1.415 0l.353.353a1 1 0 0 1 0 1.415l-3.048 3.048a.25.25 0 0 0 0 .353l1.413 1.413z"></path></svg>