<svg xmlns="http://www.w3.org/2000/svg" version="1.0" viewBox="0 0 1080.000000 300.000000" preserveAspectRatio="xMidYMid meet">

<g transform="translate(0.000000,300.000000) scale(0.100000,-0.100000)" fill="currentColor" stroke="none">
<path d="M930 2820 c-151 -37 -268 -109 -397 -243 -268 -280 -413 -705 -389 -1140 24 -425 196 -703 500 -804 74 -25 95 -27 236 -27 148 -1 159 1 245 31 209 72 364 204 487 413 57 96 120 252 146 360 49 200 56 267 57 495 0 195 -3 232 -23 325 -31 135 -54 197 -111 294 -89 151 -237 262 -401 300 -90 21 -255 19 -350 -4z m283 -141 c187 -51 297 -490 242 -959 -48 -414 -156 -694 -334 -863 -142 -136 -298 -151 -408 -40 -51 51 -93 134 -125 248 -20 73 -22 102 -23 350 0 243 2 281 23 383 63 310 159 546 297 730 95 126 216 182 328 151z"/>
<path d="M3204 2497 c-3 -9 -11 -80 -17 -159 l-12 -143 -125 -5 c-69 -3 -131 -9 -139 -14 -19 -12 -10 -112 13 -134 13 -13 40 -18 126 -20 l110 -4 0 -36 c0 -21 -7 -148 -15 -284 -16 -276 -18 -284 -114 -480 -60 -123 -114 -197 -160 -220 -44 -22 -71 -11 -96 38 -36 71 -24 302 36 687 14 90 17 133 9 146 -25 47 -200 93 -227 60 -6 -8 -25 -115 -43 -239 -37 -260 -51 -331 -86 -449 -47 -154 -107 -244 -171 -257 -41 -8 -77 26 -94 87 -18 70 -5 390 26 599 14 96 23 184 21 195 -7 28 -68 61 -144 76 -94 20 -93 21 -119 -172 -60 -444 -57 -694 8 -827 37 -76 86 -116 165 -133 139 -31 258 52 347 241 l30 65 10 -35 c41 -155 71 -209 135 -247 121 -74 290 28 404 243 39 74 47 84 51 64 3 -14 10 -52 16 -85 6 -33 25 -88 42 -122 38 -78 92 -115 180 -121 72 -5 126 19 204 89 85 78 153 179 331 487 l42 74 71 -89 c121 -151 153 -240 117 -327 -18 -43 -51 -66 -98 -66 -49 0 -82 13 -132 55 -24 19 -48 35 -55 35 -45 0 -111 -78 -111 -133 0 -37 67 -93 136 -113 44 -12 85 -15 178 -12 114 4 124 6 186 38 82 43 189 150 260 258 29 45 57 82 62 82 4 0 8 -19 8 -42 0 -60 25 -169 48 -214 23 -45 64 -85 109 -108 41 -21 125 -21 169 0 47 23 112 87 163 163 l44 64 23 -50 c58 -121 149 -183 268 -183 121 0 224 67 294 190 l30 52 18 -58 c37 -118 115 -184 217 -184 90 0 165 50 212 140 18 35 31 38 40 9 11 -33 84 -108 127 -130 56 -29 167 -26 236 6 69 32 117 69 158 123 l34 45 0 -53 0 -52 -184 -182 c-103 -102 -200 -207 -222 -241 -129 -201 -84 -360 116 -411 161 -41 321 27 404 171 63 110 86 237 86 491 l0 191 86 119 c150 208 229 353 290 527 40 117 30 109 147 122 65 7 65 7 41 -70 -41 -135 -55 -375 -30 -508 34 -176 144 -287 284 -287 102 0 188 45 239 125 15 24 31 44 34 45 3 0 11 -11 17 -25 20 -43 91 -112 140 -136 65 -31 171 -30 233 1 68 35 104 66 145 126 20 29 38 54 40 54 1 0 13 -24 27 -53 32 -71 69 -111 123 -137 98 -48 204 -5 287 115 l47 69 0 -67 c0 -79 14 -99 82 -118 126 -34 162 -7 173 128 12 145 43 311 81 423 37 110 101 239 137 277 43 47 46 37 46 -184 0 -211 12 -378 31 -445 22 -75 87 -128 159 -128 50 0 59 15 90 151 44 193 175 557 215 597 13 13 14 -12 9 -209 -9 -339 10 -438 98 -534 59 -64 110 -88 184 -88 96 0 160 42 218 143 32 56 59 167 55 229 -3 43 -5 46 -32 46 -32 0 -28 7 -72 -139 -32 -108 -111 -163 -171 -121 -52 36 -73 223 -54 460 26 310 26 358 1 410 -31 63 -84 98 -161 103 -52 4 -63 1 -94 -22 -48 -37 -89 -130 -170 -386 -37 -118 -72 -219 -77 -225 -6 -6 -9 88 -6 255 l3 265 -24 33 c-34 45 -113 82 -173 82 -39 0 -54 -5 -74 -26 -25 -24 -146 -266 -193 -386 -13 -32 -25 -58 -28 -58 -2 0 -1 87 3 193 l7 192 -26 31 c-40 48 -161 81 -185 51 -11 -13 -22 -145 -43 -512 l-11 -200 -38 -82 c-21 -45 -58 -103 -81 -128 -37 -40 -47 -46 -78 -43 -28 2 -39 10 -56 38 -32 55 -34 356 -5 596 12 99 20 197 18 219 -3 37 -7 42 -53 65 -36 18 -66 25 -110 25 l-60 0 -6 -42 c-3 -24 -8 -45 -11 -48 -3 -3 -17 14 -32 39 -77 131 -270 135 -389 7 -55 -59 -88 -111 -122 -192 -50 -119 -66 -203 -74 -384 -6 -166 -7 -172 -37 -225 -68 -122 -160 -133 -217 -27 -21 40 -22 54 -21 242 0 178 3 214 27 327 33 157 34 189 4 223 -31 37 -83 41 -187 17 -47 -11 -106 -23 -132 -27 l-47 -7 5 48 c11 101 -50 152 -149 125 -76 -22 -127 -88 -127 -163 1 -49 35 -116 70 -136 16 -9 30 -20 30 -25 0 -13 -97 -259 -135 -342 -41 -89 -115 -215 -127 -215 -5 0 -6 37 -3 83 2 45 7 155 10 244 3 89 10 219 16 289 9 111 9 128 -5 143 -22 25 -122 53 -171 49 -38 -3 -40 -5 -43 -38 -3 -33 -22 -69 -22 -42 0 24 -82 101 -126 118 -89 34 -202 -2 -281 -90 -124 -139 -207 -404 -202 -649 2 -77 -1 -101 -20 -144 -25 -56 -89 -123 -119 -123 -31 0 -60 28 -79 77 -28 73 -23 356 11 617 19 147 23 203 15 218 -15 28 -86 57 -157 64 l-59 7 -6 -33 c-4 -18 -7 -45 -7 -61 0 -41 -11 -36 -45 24 -41 70 -94 100 -181 100 -128 0 -232 -83 -310 -248 -52 -110 -72 -184 -88 -334 -12 -111 -15 -121 -67 -216 -95 -178 -156 -221 -205 -147 -45 67 -44 210 7 686 16 154 29 285 29 293 0 10 30 13 135 13 133 0 137 1 159 25 25 27 37 81 24 114 -10 28 -60 35 -190 27 -125 -7 -114 -23 -97 134 10 90 9 103 -6 120 -27 29 -115 62 -182 68 -59 4 -63 3 -71 -19 -8 -21 -32 -236 -32 -283 0 -14 -17 -16 -116 -16 -138 0 -154 -6 -154 -60 0 -91 30 -110 172 -110 l89 0 -7 -147 c-16 -386 -18 -402 -54 -483 -40 -91 -115 -226 -144 -258 l-21 -24 -5 89 c-4 56 -13 102 -25 128 -10 22 -72 94 -137 161 -65 66 -118 126 -118 132 0 6 18 39 40 73 40 63 80 156 80 188 0 59 -156 105 -229 67 -38 -20 -90 -81 -113 -134 -24 -52 -28 -144 -10 -188 12 -29 11 -37 -18 -93 -45 -89 -193 -333 -258 -424 -66 -92 -107 -122 -146 -107 -50 19 -61 65 -60 250 1 171 10 276 46 588 l21 182 128 -1 c71 0 136 4 147 10 20 11 52 78 52 110 0 38 -27 46 -167 47 -73 0 -136 3 -139 7 -3 3 -1 53 6 112 6 58 8 114 5 124 -15 48 -245 107 -261 68z m2398 -719 c19 -7 36 -28 55 -67 26 -52 28 -67 32 -199 4 -155 -5 -223 -45 -336 -67 -193 -174 -268 -259 -183 -110 110 -65 623 68 765 37 39 83 46 149 20z m1079 -1 c50 -34 70 -97 76 -242 8 -187 -28 -357 -98 -466 -44 -68 -82 -94 -142 -94 -41 0 -53 5 -72 28 -105 122 -44 627 92 764 42 41 93 45 144 10z m1850 -4 c16 -10 38 -38 51 -67 21 -47 23 -65 23 -221 0 -148 -3 -181 -24 -256 -44 -164 -120 -269 -193 -269 -40 0 -85 25 -102 58 -56 109 -49 423 13 604 23 66 62 131 93 152 30 21 102 20 139 -1z m-1765 -1090 c10 -70 -3 -229 -26 -313 -35 -126 -107 -210 -179 -210 -41 0 -91 28 -102 57 -32 84 62 266 233 453 29 32 56 58 60 59 4 0 10 -20 14 -46z"/>
</g>
</svg>