<svg aria-label="Photos of you" class="" fill="currentColor" role="img" viewBox="0 0 96 96"><title>Photos of you</title><circle cx="48" cy="48" fill="none" r="47" stroke="currentColor" stroke-linecap="round" stroke-linejoin="round" stroke-width="2"></circle><path d="M56.826 44.119a8.824 8.824 0 1 1-8.823-8.825 8.823 8.823 0 0 1 8.823 8.825Z" fill="none" stroke="currentColor" stroke-miterlimit="10" stroke-width="2"></path><path d="M63.69 67.999a9.038 9.038 0 0 0-9.25-8.998H41.56A9.038 9.038 0 0 0 32.31 68" fill="none" stroke="currentColor" stroke-linecap="round" stroke-linejoin="round" stroke-width="2"></path><path d="M48 20.215c-2.94 0-7.125 8.76-11.51 8.785h-4.705A8.785 8.785 0 0 0 23 37.784v22.428a8.785 8.785 0 0 0 8.785 8.785h32.43A8.785 8.785 0 0 0 73 60.212V37.784A8.785 8.785 0 0 0 64.215 29h-4.704c-4.385-.026-8.57-8.785-11.511-8.785Z" fill="none" stroke="currentColor" stroke-miterlimit="10" stroke-width="2"></path></svg>