<svg viewBox="0 0 36 36" fill="currentColor" aria-hidden="true"><path d="M30 9a2 2 0 0 0-2-2H14a2 2 0 0 0-2 2v3a1 1 0 0 0 1 1h9a4 4 0 0 1 4 4v3a1 1 0 0 0 1 1h1a2 2 0 0 0 2-2V9z"></path><path fill-rule="evenodd" clip-rule="evenodd" d="M6 17c0-1.105.948-2 2.118-2h13.764c1.17 0 2.118.895 2.118 2v10c0 1.105-.948 2-2.118 2H8.118C6.948 29 6 28.105 6 27V17zm3 1a1 1 0 0 1 1-1 9 9 0 0 1 9 9 1 1 0 1 1-2 0 7 7 0 0 0-7-7 1 1 0 0 1-1-1zm0 4a1 1 0 0 1 1-1 5 5 0 0 1 5 5 1 1 0 1 1-2 0 3 3 0 0 0-3-3 1 1 0 0 1-1-1zm.667 3a.667.667 0 0 0-.667.667V26a1 1 0 0 0 1 1h.333a.667.667 0 0 0 .667-.667C11 25.597 10.403 25 9.667 25z"></path></svg>