<svg viewBox="0 0 48 48" fill="currentColor"><path d="M13.022 29.736c-.514.514-1.514.266-1.514-.724V19.007a4 4 0 013.999-4.002h10.112c.787 0 1.182.953.625 1.51l-13.222 13.22zm20.675-15.029l-2.608 2.61a1.998 1.998 0 00-.585 1.412l-.002 10.283a3.992 3.992 0 01-3.996 3.995h-10.27c-.53 0-1.039.21-1.414.585l-3.116 3.117a.999.999 0 11-1.413-1.414l21.99-22.002a.999.999 0 111.414 1.414zm3.356 14.704l-3.722-1.864a1.503 1.503 0 01-.83-1.343v-4.388c0-.569.322-1.089.83-1.343l3.722-1.864a1 1 0 011.447.895v9.012a1 1 0 01-1.447.895z"></path></svg>